<?xml version="1.0" standalone="no"?>
<!DOCTYPE svg PUBLIC "-//W3C//DTD SVG 20010904//EN"
 "http://www.w3.org/TR/2001/REC-SVG-20010904/DTD/svg10.dtd">
<svg version="1.0" xmlns="http://www.w3.org/2000/svg"
 width="512.000000pt" height="512.000000pt" viewBox="0 0 512.000000 512.000000"
 preserveAspectRatio="xMidYMid meet">
<metadata>
Created by potrace 1.16, written by Peter Selinger 2001-2019
</metadata>
<g transform="translate(0.000000,512.000000) scale(0.100000,-0.100000)"
fill="#ffffff" stroke="none">
<path d="M650 5106 c-259 -58 -462 -220 -574 -457 -77 -162 -71 18 -71 -2089
0 -2107 -6 -1927 71 -2089 85 -180 215 -311 397 -396 155 -74 89 -70 1187 -70
1111 0 1029 -5 1205 80 163 79 286 202 369 370 79 158 79 160 83 604 5 445 5
447 -68 520 -116 116 -312 84 -392 -64 -21 -38 -22 -55 -27 -410 l-5 -370 -28
-57 c-35 -71 -110 -140 -183 -167 -54 -21 -71 -21 -954 -21 -894 0 -900 0
-956 21 -80 30 -164 114 -193 192 l-21 58 0 1799 0 1799 21 58 c30 79 113 162
192 192 57 21 63 21 957 21 883 0 900 0 954 -21 73 -27 148 -96 183 -167 l28
-57 5 -330 c5 -317 6 -332 27 -371 90 -168 329 -179 428 -20 l30 49 0 366 c0
416 -1 426 -81 586 -83 168 -206 291 -369 370 -181 88 -130 85 -1210 84 -709
-1 -964 -4 -1005 -13z"/>
<path d="M3911 3634 c-116 -58 -164 -208 -106 -325 9 -19 123 -141 253 -271
l237 -238 -1068 0 c-873 0 -1074 -2 -1100 -13 -194 -82 -194 -372 0 -454 26
-11 227 -13 1100 -13 l1067 0 -245 -247 c-203 -205 -247 -255 -257 -289 -49
-172 60 -324 233 -324 109 1 110 1 598 488 496 495 497 497 497 612 0 115 -1
117 -497 612 -337 336 -459 452 -493 467 -66 30 -152 28 -219 -5z"/>
</g>
</svg>
