<svg width="417" height="44" viewBox="0 0 417 44" fill="none" xmlns="http://www.w3.org/2000/svg">
<rect width="417" height="44" rx="6" fill="#F5F5F5"/>
<path d="M61.6012 19.3636C61.5415 18.8598 61.2996 18.4688 60.8753 18.1903C60.4511 17.9119 59.9307 17.7727 59.3143 17.7727C58.8635 17.7727 58.4691 17.8456 58.131 17.9915C57.7963 18.1373 57.5344 18.3378 57.3455 18.593C57.1599 18.8482 57.0671 19.1383 57.0671 19.4631C57.0671 19.7348 57.1317 19.9685 57.261 20.1641C57.3936 20.3563 57.5626 20.517 57.7681 20.6463C57.9736 20.7723 58.189 20.8767 58.4144 20.9595C58.6398 21.0391 58.8469 21.1037 59.0358 21.1534L60.0699 21.4318C60.3351 21.5014 60.6301 21.5975 60.9549 21.7202C61.283 21.8428 61.5962 22.0102 61.8945 22.2223C62.1961 22.4311 62.4447 22.6996 62.6402 23.0277C62.8358 23.3558 62.9336 23.7585 62.9336 24.2358C62.9336 24.786 62.7894 25.2831 62.501 25.7273C62.216 26.1714 61.7984 26.5244 61.2482 26.7862C60.7013 27.0481 60.0368 27.179 59.2546 27.179C58.5254 27.179 57.894 27.0613 57.3604 26.826C56.8301 26.5907 56.4125 26.2625 56.1076 25.8416C55.806 25.4207 55.6353 24.9318 55.5955 24.375H56.8682C56.9014 24.7595 57.0306 25.0777 57.256 25.3295C57.4847 25.5781 57.7731 25.7637 58.1211 25.8864C58.4724 26.0057 58.8502 26.0653 59.2546 26.0653C59.7252 26.0653 60.1478 25.9891 60.5224 25.8366C60.8969 25.6809 61.1935 25.4654 61.4123 25.1903C61.631 24.9119 61.7404 24.5871 61.7404 24.2159C61.7404 23.8778 61.6459 23.6027 61.457 23.3906C61.2681 23.1785 61.0195 23.0062 60.7113 22.8736C60.403 22.741 60.0699 22.625 59.712 22.5256L58.4591 22.1676C57.6637 21.9389 57.034 21.6125 56.5699 21.1882C56.1059 20.764 55.8739 20.2088 55.8739 19.5227C55.8739 18.9527 56.028 18.4555 56.3363 18.0312C56.6478 17.6037 57.0654 17.2723 57.5891 17.0369C58.1161 16.7983 58.7044 16.679 59.354 16.679C60.0103 16.679 60.5936 16.7966 61.104 17.032C61.6144 17.264 62.0188 17.5821 62.3171 17.9865C62.6187 18.3909 62.7778 18.8499 62.7944 19.3636H61.6012ZM68.0034 27.1591C67.2676 27.1591 66.6328 26.9967 66.0992 26.6719C65.5689 26.3438 65.1596 25.8864 64.8712 25.2997C64.5862 24.7098 64.4437 24.0237 64.4437 23.2415C64.4437 22.4593 64.5862 21.7699 64.8712 21.1733C65.1596 20.5734 65.5606 20.1061 66.0744 19.7713C66.5914 19.4332 67.1946 19.2642 67.884 19.2642C68.2818 19.2642 68.6745 19.3305 69.0623 19.4631C69.4501 19.5956 69.8031 19.8111 70.1212 20.1094C70.4394 20.4044 70.693 20.7955 70.8819 21.2827C71.0708 21.7699 71.1653 22.3698 71.1653 23.0824V23.5795H65.2789V22.5653H69.9721C69.9721 22.1345 69.8859 21.75 69.7136 21.4119C69.5445 21.0739 69.3026 20.8071 68.9877 20.6115C68.6762 20.416 68.3083 20.3182 67.884 20.3182C67.4167 20.3182 67.0123 20.4342 66.671 20.6662C66.3329 20.8949 66.0727 21.1932 65.8904 21.5611C65.7081 21.929 65.617 22.3234 65.617 22.7443V23.4205C65.617 23.9972 65.7164 24.486 65.9153 24.8871C66.1175 25.2848 66.3975 25.5881 66.7555 25.7969C67.1134 26.0024 67.5294 26.1051 68.0034 26.1051C68.3116 26.1051 68.59 26.062 68.8386 25.9759C69.0905 25.8864 69.3076 25.7538 69.4899 25.5781C69.6721 25.3991 69.813 25.1771 69.9124 24.9119L71.046 25.2301C70.9266 25.6146 70.7261 25.9527 70.4444 26.2443C70.1627 26.5327 69.8147 26.758 69.4004 26.9205C68.9861 27.0795 68.5204 27.1591 68.0034 27.1591ZM75.1972 27.179C74.7133 27.179 74.2742 27.0878 73.8798 26.9055C73.4854 26.7199 73.1721 26.4531 72.9401 26.1051C72.7081 25.7538 72.5921 25.3295 72.5921 24.8324C72.5921 24.3949 72.6783 24.0402 72.8507 23.7685C73.023 23.4934 73.2534 23.2779 73.5417 23.1222C73.8301 22.9664 74.1482 22.8504 74.4962 22.7741C74.8476 22.6946 75.2006 22.6316 75.5552 22.5852C76.0192 22.5256 76.3954 22.4808 76.6837 22.451C76.9754 22.4179 77.1875 22.3632 77.3201 22.2869C77.456 22.2107 77.5239 22.0781 77.5239 21.8892V21.8494C77.5239 21.3589 77.3897 20.9777 77.1212 20.706C76.8561 20.4342 76.4534 20.2983 75.9132 20.2983C75.353 20.2983 74.9139 20.4209 74.5957 20.6662C74.2775 20.9115 74.0538 21.1733 73.9245 21.4517L72.8109 21.054C73.0097 20.59 73.2749 20.2287 73.6063 19.9702C73.9411 19.7083 74.3057 19.526 74.7001 19.4233C75.0978 19.3172 75.4889 19.2642 75.8734 19.2642C76.1186 19.2642 76.4004 19.294 76.7186 19.3537C77.04 19.41 77.3499 19.5277 77.6482 19.7067C77.9498 19.8857 78.2001 20.1558 78.3989 20.517C78.5978 20.8783 78.6972 21.3622 78.6972 21.9688V27H77.5239V25.9659H77.4643C77.3847 26.1316 77.2522 26.3089 77.0666 26.4979C76.881 26.6868 76.634 26.8475 76.3258 26.9801C76.0176 27.1127 75.6414 27.179 75.1972 27.179ZM75.3762 26.125C75.8402 26.125 76.2313 26.0339 76.5495 25.8516C76.871 25.6693 77.113 25.4339 77.2754 25.1456C77.4411 24.8572 77.5239 24.554 77.5239 24.2358V23.1619C77.4742 23.2216 77.3649 23.2763 77.1958 23.326C77.0301 23.3724 76.8379 23.4138 76.6191 23.4503C76.4037 23.4834 76.1932 23.5133 75.9877 23.5398C75.7855 23.563 75.6215 23.5829 75.4955 23.5994C75.1906 23.6392 74.9056 23.7038 74.6404 23.7933C74.3786 23.8795 74.1665 24.0104 74.0041 24.1861C73.845 24.3584 73.7654 24.5937 73.7654 24.892C73.7654 25.2997 73.9162 25.608 74.2178 25.8168C74.5228 26.0223 74.9089 26.125 75.3762 26.125ZM80.8388 27V19.3636H81.9723V20.517H82.0518C82.191 20.1392 82.4429 19.8326 82.8075 19.5973C83.1721 19.362 83.5831 19.2443 84.0405 19.2443C84.1266 19.2443 84.2344 19.246 84.3636 19.2493C84.4929 19.2526 84.5907 19.2576 84.6569 19.2642V20.4574C84.6172 20.4474 84.526 20.4325 84.3835 20.4126C84.2443 20.3894 84.0968 20.3778 83.941 20.3778C83.5698 20.3778 83.2384 20.4557 82.9467 20.6115C82.6584 20.764 82.4297 20.9761 82.2606 21.2479C82.0949 21.5163 82.0121 21.8229 82.0121 22.1676V27H80.8388ZM88.9176 27.1591C88.2017 27.1591 87.5852 26.9901 87.0682 26.652C86.5511 26.3139 86.1534 25.8482 85.875 25.255C85.5966 24.6617 85.4574 23.9839 85.4574 23.2216C85.4574 22.446 85.5999 21.7616 85.8849 21.1683C86.1733 20.5717 86.5743 20.1061 87.088 19.7713C87.6051 19.4332 88.2083 19.2642 88.8977 19.2642C89.4346 19.2642 89.9185 19.3636 90.3494 19.5625C90.7803 19.7614 91.1333 20.0398 91.4084 20.3977C91.6835 20.7557 91.8541 21.1733 91.9204 21.6506H90.7471C90.6576 21.3026 90.4588 20.9943 90.1505 20.7259C89.8456 20.4541 89.4346 20.3182 88.9176 20.3182C88.4602 20.3182 88.0592 20.4375 87.7145 20.6761C87.3731 20.9115 87.1063 21.2446 86.914 21.6754C86.7251 22.103 86.6307 22.6051 86.6307 23.1818C86.6307 23.7718 86.7235 24.2855 86.9091 24.723C87.098 25.1605 87.3631 25.5002 87.7045 25.7422C88.0492 25.9841 88.4536 26.1051 88.9176 26.1051C89.2225 26.1051 89.4993 26.0521 89.7478 25.946C89.9964 25.84 90.2069 25.6875 90.3792 25.4886C90.5516 25.2898 90.6742 25.0511 90.7471 24.7727H91.9204C91.8541 25.2235 91.6901 25.6295 91.4282 25.9908C91.1697 26.3487 90.8267 26.6338 90.3991 26.8459C89.9749 27.0547 89.481 27.1591 88.9176 27.1591ZM94.8089 22.4062V27H93.6356V16.8182H94.8089V20.5568H94.9084C95.0873 20.1624 95.3558 19.8492 95.7138 19.6172C96.075 19.3819 96.5556 19.2642 97.1555 19.2642C97.6759 19.2642 98.1316 19.3686 98.5227 19.5774C98.9138 19.7829 99.2171 20.0994 99.4325 20.527C99.6513 20.9512 99.7606 21.4915 99.7606 22.1477V27H98.5873V22.2273C98.5873 21.6207 98.4299 21.1518 98.115 20.8203C97.8035 20.4856 97.371 20.3182 96.8174 20.3182C96.433 20.3182 96.0883 20.3994 95.7834 20.5618C95.4817 20.7242 95.2431 20.9612 95.0674 21.2727C94.8951 21.5843 94.8089 21.9621 94.8089 22.4062ZM109.245 19.3636V20.358H105.129V19.3636H109.245ZM106.362 27V18.3097C106.362 17.8722 106.464 17.5076 106.67 17.2159C106.875 16.9242 107.142 16.7055 107.47 16.5597C107.798 16.4138 108.145 16.3409 108.509 16.3409C108.798 16.3409 109.033 16.3641 109.215 16.4105C109.398 16.4569 109.534 16.5 109.623 16.5398L109.285 17.554C109.225 17.5341 109.142 17.5092 109.036 17.4794C108.934 17.4496 108.798 17.4347 108.629 17.4347C108.241 17.4347 107.961 17.5324 107.789 17.728C107.619 17.9235 107.535 18.2102 107.535 18.5881V27H106.362ZM113.677 27.1591C112.988 27.1591 112.383 26.995 111.863 26.6669C111.346 26.3388 110.941 25.8797 110.65 25.2898C110.361 24.6998 110.217 24.0104 110.217 23.2216C110.217 22.4261 110.361 21.7318 110.65 21.1385C110.941 20.5452 111.346 20.0845 111.863 19.7564C112.383 19.4283 112.988 19.2642 113.677 19.2642C114.367 19.2642 114.97 19.4283 115.487 19.7564C116.007 20.0845 116.412 20.5452 116.7 21.1385C116.992 21.7318 117.138 22.4261 117.138 23.2216C117.138 24.0104 116.992 24.6998 116.7 25.2898C116.412 25.8797 116.007 26.3388 115.487 26.6669C114.97 26.995 114.367 27.1591 113.677 27.1591ZM113.677 26.1051C114.201 26.1051 114.632 25.9709 114.97 25.7024C115.308 25.4339 115.558 25.081 115.721 24.6435C115.883 24.206 115.964 23.732 115.964 23.2216C115.964 22.7112 115.883 22.2356 115.721 21.7947C115.558 21.3539 115.308 20.9976 114.97 20.7259C114.632 20.4541 114.201 20.3182 113.677 20.3182C113.154 20.3182 112.723 20.4541 112.385 20.7259C112.047 20.9976 111.796 21.3539 111.634 21.7947C111.472 22.2356 111.39 22.7112 111.39 23.2216C111.39 23.732 111.472 24.206 111.634 24.6435C111.796 25.081 112.047 25.4339 112.385 25.7024C112.723 25.9709 113.154 26.1051 113.677 26.1051ZM118.929 27V19.3636H120.062V20.517H120.142C120.281 20.1392 120.533 19.8326 120.897 19.5973C121.262 19.362 121.673 19.2443 122.13 19.2443C122.216 19.2443 122.324 19.246 122.453 19.2493C122.583 19.2526 122.68 19.2576 122.747 19.2642V20.4574C122.707 20.4474 122.616 20.4325 122.473 20.4126C122.334 20.3894 122.187 20.3778 122.031 20.3778C121.66 20.3778 121.328 20.4557 121.037 20.6115C120.748 20.764 120.52 20.9761 120.35 21.2479C120.185 21.5163 120.102 21.8229 120.102 22.1676V27H118.929ZM130.322 27.179C129.838 27.179 129.399 27.0878 129.005 26.9055C128.61 26.7199 128.297 26.4531 128.065 26.1051C127.833 25.7538 127.717 25.3295 127.717 24.8324C127.717 24.3949 127.803 24.0402 127.976 23.7685C128.148 23.4934 128.378 23.2779 128.667 23.1222C128.955 22.9664 129.273 22.8504 129.621 22.7741C129.973 22.6946 130.326 22.6316 130.68 22.5852C131.144 22.5256 131.52 22.4808 131.809 22.451C132.1 22.4179 132.313 22.3632 132.445 22.2869C132.581 22.2107 132.649 22.0781 132.649 21.8892V21.8494C132.649 21.3589 132.515 20.9777 132.246 20.706C131.981 20.4342 131.578 20.2983 131.038 20.2983C130.478 20.2983 130.039 20.4209 129.721 20.6662C129.402 20.9115 129.179 21.1733 129.05 21.4517L127.936 21.054C128.135 20.59 128.4 20.2287 128.731 19.9702C129.066 19.7083 129.431 19.526 129.825 19.4233C130.223 19.3172 130.614 19.2642 130.998 19.2642C131.244 19.2642 131.525 19.294 131.844 19.3537C132.165 19.41 132.475 19.5277 132.773 19.7067C133.075 19.8857 133.325 20.1558 133.524 20.517C133.723 20.8783 133.822 21.3622 133.822 21.9688V27H132.649V25.9659H132.589C132.51 26.1316 132.377 26.3089 132.192 26.4979C132.006 26.6868 131.759 26.8475 131.451 26.9801C131.143 27.1127 130.766 27.179 130.322 27.179ZM130.501 26.125C130.965 26.125 131.356 26.0339 131.675 25.8516C131.996 25.6693 132.238 25.4339 132.4 25.1456C132.566 24.8572 132.649 24.554 132.649 24.2358V23.1619C132.599 23.2216 132.49 23.2763 132.321 23.326C132.155 23.3724 131.963 23.4138 131.744 23.4503C131.529 23.4834 131.318 23.5133 131.113 23.5398C130.911 23.563 130.746 23.5829 130.621 23.5994C130.316 23.6392 130.031 23.7038 129.765 23.7933C129.504 23.8795 129.291 24.0104 129.129 24.1861C128.97 24.3584 128.89 24.5937 128.89 24.892C128.89 25.2997 129.041 25.608 129.343 25.8168C129.648 26.0223 130.034 26.125 130.501 26.125ZM137.137 22.4062V27H135.964V19.3636H137.097V20.5568H137.197C137.376 20.169 137.647 19.8575 138.012 19.6222C138.377 19.3835 138.847 19.2642 139.424 19.2642C139.941 19.2642 140.393 19.3703 140.781 19.5824C141.169 19.7912 141.471 20.1094 141.686 20.5369C141.901 20.9612 142.009 21.4981 142.009 22.1477V27H140.836V22.2273C140.836 21.6274 140.68 21.16 140.369 20.8253C140.057 20.4872 139.629 20.3182 139.086 20.3182C138.711 20.3182 138.377 20.3994 138.082 20.5618C137.79 20.7242 137.56 20.9612 137.391 21.2727C137.222 21.5843 137.137 21.9621 137.137 22.4062ZM144.635 29.8636C144.437 29.8636 144.259 29.8471 144.103 29.8139C143.948 29.7841 143.84 29.7543 143.78 29.7244L144.079 28.6903C144.364 28.7633 144.616 28.7898 144.834 28.7699C145.053 28.75 145.247 28.6522 145.416 28.4766C145.588 28.3042 145.746 28.0241 145.888 27.6364L146.107 27.0398L143.283 19.3636H144.556L146.664 25.4489H146.743L148.851 19.3636H150.124L146.883 28.1136C146.737 28.508 146.556 28.8345 146.341 29.093C146.125 29.3549 145.875 29.5488 145.59 29.6747C145.308 29.8007 144.99 29.8636 144.635 29.8636ZM154.994 19.3636V20.358H151.036V19.3636H154.994ZM152.19 17.5341H153.363V24.8125C153.363 25.1439 153.411 25.3925 153.507 25.5582C153.607 25.7206 153.733 25.83 153.885 25.8864C154.041 25.9394 154.205 25.9659 154.377 25.9659C154.507 25.9659 154.613 25.9593 154.695 25.946C154.778 25.9295 154.845 25.9162 154.894 25.9062L155.133 26.9602C155.053 26.9901 154.942 27.0199 154.8 27.0497C154.657 27.0829 154.477 27.0994 154.258 27.0994C153.927 27.0994 153.602 27.0282 153.284 26.8857C152.969 26.7431 152.707 26.526 152.498 26.2344C152.293 25.9427 152.19 25.5748 152.19 25.1307V17.5341ZM158.096 22.4062V27H156.923V16.8182H158.096V20.5568H158.195C158.374 20.1624 158.643 19.8492 159.001 19.6172C159.362 19.3819 159.843 19.2642 160.443 19.2642C160.963 19.2642 161.419 19.3686 161.81 19.5774C162.201 19.7829 162.504 20.0994 162.72 20.527C162.938 20.9512 163.048 21.4915 163.048 22.1477V27H161.874V22.2273C161.874 21.6207 161.717 21.1518 161.402 20.8203C161.091 20.4856 160.658 20.3182 160.105 20.3182C159.72 20.3182 159.375 20.3994 159.07 20.5618C158.769 20.7242 158.53 20.9612 158.355 21.2727C158.182 21.5843 158.096 21.9621 158.096 22.4062ZM165.194 27V19.3636H166.368V27H165.194ZM165.791 18.0909C165.562 18.0909 165.365 18.013 165.199 17.8572C165.037 17.7015 164.956 17.5142 164.956 17.2955C164.956 17.0767 165.037 16.8894 165.199 16.7337C165.365 16.5779 165.562 16.5 165.791 16.5C166.02 16.5 166.215 16.5779 166.377 16.7337C166.543 16.8894 166.626 17.0767 166.626 17.2955C166.626 17.5142 166.543 17.7015 166.377 17.8572C166.215 18.013 166.02 18.0909 165.791 18.0909ZM169.69 22.4062V27H168.516V19.3636H169.65V20.5568H169.749C169.928 20.169 170.2 19.8575 170.565 19.6222C170.929 19.3835 171.4 19.2642 171.977 19.2642C172.494 19.2642 172.946 19.3703 173.334 19.5824C173.722 19.7912 174.023 20.1094 174.239 20.5369C174.454 20.9612 174.562 21.4981 174.562 22.1477V27H173.389V22.2273C173.389 21.6274 173.233 21.16 172.921 20.8253C172.61 20.4872 172.182 20.3182 171.639 20.3182C171.264 20.3182 170.929 20.3994 170.634 20.5618C170.343 20.7242 170.112 20.9612 169.943 21.2727C169.774 21.5843 169.69 21.9621 169.69 22.4062ZM179.788 30.0227C179.222 30.0227 178.734 29.9498 178.327 29.804C177.919 29.6615 177.579 29.4725 177.308 29.2372C177.039 29.0052 176.825 28.7566 176.666 28.4915L177.601 27.8352C177.707 27.9744 177.841 28.1335 178.004 28.3125C178.166 28.4948 178.388 28.6522 178.67 28.7848C178.955 28.9207 179.328 28.9886 179.788 28.9886C180.405 28.9886 180.914 28.8395 181.315 28.5412C181.716 28.2429 181.916 27.7756 181.916 27.1392V25.5881H181.817C181.731 25.7273 181.608 25.8996 181.449 26.1051C181.293 26.3073 181.068 26.4879 180.773 26.647C180.481 26.8028 180.087 26.8807 179.589 26.8807C178.973 26.8807 178.419 26.7348 177.929 26.4432C177.442 26.1515 177.056 25.7273 176.771 25.1705C176.489 24.6136 176.348 23.9375 176.348 23.142C176.348 22.3598 176.486 21.6787 176.761 21.0987C177.036 20.5154 177.419 20.0646 177.909 19.7464C178.4 19.425 178.966 19.2642 179.609 19.2642C180.107 19.2642 180.501 19.3471 180.793 19.5128C181.088 19.6752 181.313 19.8608 181.469 20.0696C181.628 20.2751 181.75 20.4441 181.837 20.5767H181.956V19.3636H183.089V27.2188C183.089 27.875 182.94 28.4086 182.642 28.8196C182.347 29.2339 181.949 29.5372 181.449 29.7294C180.952 29.925 180.398 30.0227 179.788 30.0227ZM179.749 25.8267C180.219 25.8267 180.617 25.719 180.942 25.5036C181.267 25.2881 181.513 24.9782 181.683 24.5739C181.852 24.1695 181.936 23.6856 181.936 23.1222C181.936 22.572 181.853 22.0864 181.687 21.6655C181.522 21.2446 181.276 20.9148 180.952 20.6761C180.627 20.4375 180.226 20.3182 179.749 20.3182C179.251 20.3182 178.837 20.4441 178.506 20.696C178.178 20.9479 177.931 21.286 177.765 21.7102C177.602 22.1345 177.521 22.6051 177.521 23.1222C177.521 23.6525 177.604 24.1214 177.77 24.5291C177.939 24.9335 178.187 25.2517 178.516 25.4837C178.847 25.7124 179.258 25.8267 179.749 25.8267ZM186.092 27.0795C185.847 27.0795 185.637 26.9917 185.461 26.8161C185.285 26.6404 185.197 26.4299 185.197 26.1847C185.197 25.9394 185.285 25.7289 185.461 25.5533C185.637 25.3776 185.847 25.2898 186.092 25.2898C186.338 25.2898 186.548 25.3776 186.724 25.5533C186.899 25.7289 186.987 25.9394 186.987 26.1847C186.987 26.3471 186.946 26.4962 186.863 26.6321C186.783 26.768 186.676 26.8774 186.54 26.9602C186.407 27.0398 186.258 27.0795 186.092 27.0795ZM189.948 27.0795C189.703 27.0795 189.492 26.9917 189.316 26.8161C189.141 26.6404 189.053 26.4299 189.053 26.1847C189.053 25.9394 189.141 25.7289 189.316 25.5533C189.492 25.3776 189.703 25.2898 189.948 25.2898C190.193 25.2898 190.404 25.3776 190.579 25.5533C190.755 25.7289 190.843 25.9394 190.843 26.1847C190.843 26.3471 190.801 26.4962 190.718 26.6321C190.639 26.768 190.531 26.8774 190.395 26.9602C190.263 27.0398 190.113 27.0795 189.948 27.0795ZM193.803 27.0795C193.558 27.0795 193.348 26.9917 193.172 26.8161C192.996 26.6404 192.908 26.4299 192.908 26.1847C192.908 25.9394 192.996 25.7289 193.172 25.5533C193.348 25.3776 193.558 25.2898 193.803 25.2898C194.049 25.2898 194.259 25.3776 194.435 25.5533C194.61 25.7289 194.698 25.9394 194.698 26.1847C194.698 26.3471 194.657 26.4962 194.574 26.6321C194.494 26.768 194.387 26.8774 194.251 26.9602C194.118 27.0398 193.969 27.0795 193.803 27.0795Z" fill="#787486"/>
<path d="M27.3417 29.25C32.1512 29.25 36.05 25.3512 36.05 20.5417C36.05 15.7322 32.1512 11.8333 27.3417 11.8333C22.5322 11.8333 18.6334 15.7322 18.6334 20.5417C18.6334 25.3512 22.5322 29.25 27.3417 29.25Z" stroke="#787486" stroke-width="1.5" stroke-linecap="round" stroke-linejoin="round"/>
<path d="M36.9667 30.1667L35.1334 28.3333" stroke="#787486" stroke-width="1.5" stroke-linecap="round" stroke-linejoin="round"/>
</svg>
