<?xml version="1.0" standalone="no"?>
<!DOCTYPE svg PUBLIC "-//W3C//DTD SVG 20010904//EN"
 "http://www.w3.org/TR/2001/REC-SVG-20010904/DTD/svg10.dtd">
<svg version="1.0" xmlns="http://www.w3.org/2000/svg"
 width="1051.000000pt" height="439.000000pt" viewBox="0 0 1051.000000 439.000000"
 preserveAspectRatio="xMidYMid meet">
<metadata>
Created by potrace 1.16, written by Peter Selinger 2001-2019
</metadata>
<g transform="translate(0.000000,439.000000) scale(0.100000,-0.100000)"
fill="#ffffff" stroke="none">
<path d="M1929 4138 c-163 -85 -359 -188 -454 -238 -38 -21 -133 -70 -210
-110 -77 -40 -180 -94 -230 -120 -49 -26 -148 -78 -220 -115 -71 -37 -228
-119 -348 -182 l-217 -115 0 -339 c0 -263 3 -341 13 -344 16 -5 251 -91 434
-158 86 -31 143 -57 143 -65 0 -14 -95 -207 -476 -959 l-234 -462 2 -316 3
-317 130 -48 c290 -109 598 -220 610 -220 12 0 39 13 275 137 58 31 152 80
210 110 58 31 146 77 195 103 50 26 158 82 240 125 145 75 233 121 455 238 58
30 155 81 215 112 61 32 170 89 243 127 l132 70 0 341 0 342 -147 54 c-82 30
-232 85 -336 122 -212 77 -207 75 -207 95 0 9 71 156 159 327 87 172 234 462
326 644 l167 333 5 309 c4 222 3 310 -6 315 -11 7 -130 52 -243 91 -36 13 -81
30 -100 38 -18 8 -60 24 -93 36 -68 23 -237 84 -276 99 -22 9 -43 1 -160 -60z
m476 -180 c94 -34 174 -65 178 -68 9 -8 -101 -67 -988 -531 -330 -172 -607
-312 -615 -311 -17 1 -473 167 -497 180 -19 11 -5 20 232 142 99 51 203 105
230 120 58 32 711 373 959 501 l170 87 80 -29 c45 -17 158 -58 251 -91z m285
-395 l0 -216 -224 -441 c-123 -243 -389 -769 -591 -1171 -202 -401 -374 -739
-381 -750 -8 -11 -14 -26 -14 -34 0 -11 5 -10 23 5 12 11 42 29 67 39 25 10
52 24 60 31 8 7 53 30 100 52 73 34 489 249 856 443 61 33 116 59 122 59 9 0
12 -61 12 -229 l0 -229 -92 -47 c-51 -27 -124 -65 -163 -85 -38 -21 -185 -97
-325 -170 -140 -73 -262 -138 -270 -145 -15 -12 -129 -71 -300 -156 -47 -23
-130 -65 -185 -94 -323 -171 -431 -225 -442 -221 -10 4 -11 59 -7 238 5 253 0
229 75 378 17 36 41 77 51 93 11 15 30 55 44 89 13 34 30 68 38 77 7 9 57 104
111 211 133 267 534 1060 721 1427 85 166 154 306 154 311 0 5 -55 -19 -122
-55 -68 -36 -292 -153 -498 -260 -206 -107 -390 -204 -408 -214 -18 -10 -37
-19 -43 -19 -5 0 -9 91 -9 225 l0 225 38 23 c20 13 118 65 217 117 99 51 203
105 230 120 28 15 133 70 235 123 102 53 347 181 545 285 198 104 363 187 368
185 4 -2 7 -101 7 -220z m-2030 -532 l265 -98 3 -228 c1 -126 -1 -232 -5 -236
-5 -3 -131 39 -280 94 l-273 100 0 233 c0 181 3 234 13 233 6 0 131 -44 277
-98z m1180 -302 c0 -6 -62 -133 -139 -282 -125 -244 -692 -1375 -788 -1570
-21 -43 -47 -89 -58 -103 l-20 -26 -45 17 c-25 9 -68 25 -95 35 -28 10 -71 27
-95 38 -25 11 -103 41 -175 67 -72 25 -133 50 -137 53 -4 4 -2 19 5 32 7 14
156 309 332 656 l318 630 151 80 c83 43 225 118 316 165 91 47 221 116 290
152 131 70 140 74 140 56z m585 -968 c209 -77 198 -72 183 -86 -7 -7 -85 -50
-173 -95 -88 -46 -191 -100 -230 -120 -205 -109 -423 -220 -433 -220 -13 0
294 609 315 627 16 12 12 13 338 -106z m-2000 -987 c83 -31 170 -62 195 -70
25 -7 77 -26 115 -42 l70 -29 3 -226 c1 -125 -1 -227 -5 -227 -5 0 -129 45
-278 99 l-270 98 -3 227 c-2 180 0 226 11 226 7 0 80 -25 162 -56z"/>
<path d="M3420 2075 l0 -175 270 0 c149 0 270 -2 270 -5 0 -3 -126 -161 -280
-352 l-280 -346 0 -138 0 -139 570 0 570 0 0 175 0 175 -294 2 -294 3 279 345
278 345 -2 140 -2 140 -542 3 -543 2 0 -175z"/>
<path d="M4667 2243 c-4 -3 -7 -303 -7 -665 l0 -658 520 0 520 0 0 165 0 165
-312 2 -313 3 -3 88 -3 87 266 0 265 0 0 160 0 160 -262 2 -263 3 0 75 0 75
300 5 300 5 0 165 0 165 -501 3 c-275 1 -504 -1 -507 -5z"/>
<path d="M5870 1585 l0 -665 205 0 205 0 2 297 3 298 233 -298 234 -297 174 0
174 0 -2 663 -3 662 -200 0 -200 0 -5 -300 -5 -300 -236 300 -235 300 -172 3
-172 2 0 -665z"/>
<path d="M7310 1595 c0 -360 0 -658 0 -662 0 -5 92 -8 205 -8 l206 0 -1 654
c0 359 -3 657 -6 662 -3 5 -95 9 -205 9 l-199 0 0 -655z"/>
<path d="M7837 2243 c-4 -3 -7 -82 -7 -175 l0 -168 180 0 180 0 0 -490 0 -490
210 0 210 0 0 490 0 490 183 2 182 3 0 170 0 170 -566 3 c-311 1 -569 -1 -572
-5z"/>
<path d="M9097 2244 c-4 -4 -7 -304 -7 -666 l0 -658 210 0 210 0 0 245 0 245
195 0 195 0 0 -245 0 -245 210 0 210 0 -2 663 -3 662 -207 3 -208 2 0 -235 0
-235 -195 0 -195 0 -2 233 -3 232 -201 3 c-110 1 -203 -1 -207 -4z"/>
</g>
</svg>
